<svg width="28" height="29" viewBox="0 0 28 29" fill="none" xmlns="http://www.w3.org/2000/svg">
<path d="M0.666748 24.0331C0.666748 26.3729 2.40008 28.1621 4.66675 28.1621H23.3334C25.6001 28.1621 27.3334 26.3729 27.3334 24.0331V13.0223H0.666748V24.0331ZM23.3334 3.38794H20.6667V2.0116C20.6667 1.18579 20.1334 0.635254 19.3334 0.635254C18.5334 0.635254 18.0001 1.18579 18.0001 2.0116V3.38794H10.0001V2.0116C10.0001 1.18579 9.46675 0.635254 8.66675 0.635254C7.86675 0.635254 7.33342 1.18579 7.33342 2.0116V3.38794H4.66675C2.40008 3.38794 0.666748 5.17719 0.666748 7.51697V10.2697H27.3334V7.51697C27.3334 5.17719 25.6001 3.38794 23.3334 3.38794Z" fill="#323B4B"/>
</svg>
