<svg width="31" height="33" viewBox="0 0 31 33" fill="none" xmlns="http://www.w3.org/2000/svg">
<path d="M15.6035 14.0019C18.6895 14.0019 21.5736 13.7459 24.2559 13.234C26.9382 12.7221 29.054 11.9662 30.6035 10.9662V14.0019C30.6035 14.8233 29.9329 15.5852 28.5918 16.2876C27.2507 16.99 25.4277 17.5465 23.123 17.9572C20.8184 18.368 18.3118 18.5733 15.6035 18.5733C12.8952 18.5733 10.3887 18.368 8.08398 17.9572C5.7793 17.5465 3.95638 16.99 2.61523 16.2876C1.27409 15.5852 0.603516 14.8233 0.603516 14.0019V10.9662C2.15299 11.9662 4.26888 12.7221 6.95117 13.234C9.63346 13.7459 12.5176 14.0019 15.6035 14.0019ZM15.6035 27.7162C18.6895 27.7162 21.5736 27.4602 24.2559 26.9483C26.9382 26.4364 29.054 25.6805 30.6035 24.6805V27.7162C30.6035 28.5376 29.9329 29.2995 28.5918 30.0019C27.2507 30.7043 25.4277 31.2608 23.123 31.6715C20.8184 32.0822 18.3118 32.2876 15.6035 32.2876C12.8952 32.2876 10.3887 32.0822 8.08398 31.6715C5.7793 31.2608 3.95638 30.7043 2.61523 30.0019C1.27409 29.2995 0.603516 28.5376 0.603516 27.7162V24.6805C2.15299 25.6805 4.26888 26.4364 6.95117 26.9483C9.63346 27.4602 12.5176 27.7162 15.6035 27.7162ZM15.6035 20.859C18.6895 20.859 21.5736 20.6031 24.2559 20.0912C26.9382 19.5793 29.054 18.8233 30.6035 17.8233V20.859C30.6035 21.6805 29.9329 22.4424 28.5918 23.1447C27.2507 23.8471 25.4277 24.4037 23.123 24.8144C20.8184 25.2251 18.3118 25.4305 15.6035 25.4305C12.8952 25.4305 10.3887 25.2251 8.08398 24.8144C5.7793 24.4037 3.95638 23.8471 2.61523 23.1447C1.27409 22.4424 0.603516 21.6805 0.603516 20.859V17.8233C2.15299 18.8233 4.26888 19.5793 6.95117 20.0912C9.63346 20.6031 12.5176 20.859 15.6035 20.859ZM15.6035 0.287598C18.3118 0.287598 20.8184 0.492955 23.123 0.903669C25.4277 1.31438 27.2507 1.87093 28.5918 2.57331C29.9329 3.27569 30.6035 4.0376 30.6035 4.85903V7.14474C30.6035 7.96617 29.9329 8.72807 28.5918 9.43046C27.2507 10.1328 25.4277 10.6894 23.123 11.1001C20.8184 11.5108 18.3118 11.7162 15.6035 11.7162C12.8952 11.7162 10.3887 11.5108 8.08398 11.1001C5.7793 10.6894 3.95638 10.1328 2.61523 9.43046C1.27409 8.72807 0.603516 7.96617 0.603516 7.14474V4.85903C0.603516 4.0376 1.27409 3.27569 2.61523 2.57331C3.95638 1.87093 5.7793 1.31438 8.08398 0.903669C10.3887 0.492955 12.8952 0.287598 15.6035 0.287598Z" fill="#323B4B"/>
</svg>
