<svg width="717" height="715" viewBox="0 0 717 715" fill="none" xmlns="http://www.w3.org/2000/svg">
<path fill-rule="evenodd" clip-rule="evenodd" d="M356.348 164.839C485.321 273.453 620.703 231.828 635.883 356.834C652.008 489.709 608.874 409.739 504.99 492.643C353.379 613.647 125.72 571.428 117.288 355.572C111.677 211.767 253.881 78.5516 356.348 164.839Z" fill="#F1F6FF"/>
<path d="M82.7349 456.145C83.8715 453.629 84.5521 451.062 85.8928 448.942C87.405 446.877 89.9479 445.282 92.5785 446.217C104.354 450.026 116.196 449.939 122.569 440.225C122.526 440.372 122.508 440.526 122.517 440.68C122.519 440.823 122.691 440.877 122.833 440.875C122.979 441.158 123.522 441.378 123.809 441.517C125.297 442.181 126.977 442.246 128.598 442.056C130.644 441.719 132.307 440.362 134.089 439.375C135.238 438.687 136.452 438.11 137.712 437.654C137.74 438.315 137.672 438.977 137.508 439.618C137.474 439.608 137.439 439.605 137.405 439.611C137.37 439.616 137.338 439.629 137.309 439.649C135.881 441.599 132.899 442.204 130.411 443.627C128.288 444.648 126.543 446.261 125.056 448.098C123.649 449.739 122.5 451.584 121.649 453.57C119.652 457.887 119.112 462.669 118.885 467.363C118.867 468.301 118.388 473.339 119.972 472.524C121.49 470.885 122.29 468.829 123.957 467.757C128.784 464.342 134.813 463.815 139.089 459.613C143.391 455.182 146.504 446.644 141.179 441.876C140.391 441.2 139.488 440.672 138.512 440.316C138.341 440.261 138.226 440.178 138.054 440.123C138.297 439.233 138.401 438.311 138.363 437.39C139.375 437.077 140.429 436.92 141.489 436.925C143.054 436.906 144.68 437.142 146.213 436.782C148.854 436.21 150.933 433.996 151.67 431.4C151.888 430.573 152.217 429.545 152.205 428.55C153.527 429.587 154.963 430.564 156.592 431.084C158.934 431.738 161.863 431.447 162.77 428.763C163.318 427.051 162.898 425.265 162.735 423.562C162.579 422.427 162.929 420.745 163.139 419.349C163.254 419.984 163.494 420.59 163.844 421.132C164.28 421.837 164.772 422.514 165.264 423.19C165.025 426.889 164.989 430.984 167.021 434.228C161.973 433.465 160.847 441.552 153.796 437.601C152.88 437.214 150.409 435.339 150.088 437.077C150.009 437.618 150.243 438.07 150.419 438.551C150.889 439.743 151.536 440.856 152.339 441.854C154.765 444.753 158.948 446.892 162.722 445.879C164.056 445.55 165.295 444.483 166.113 443.848C167.088 443.155 168.167 442.624 169.311 442.275C171.636 441.508 174.138 441.221 176.201 439.945C176.676 439.634 177.111 439.266 177.497 438.849C177.833 440.75 179.137 442.582 181.947 444.282C185.758 446.255 189.528 447.318 192.584 450.465C193.102 450.913 194.145 452.379 194.838 453.167C195.704 454.151 196.325 453.689 196.51 452.521C197.821 447.985 198.045 443.007 195.943 438.654C194.976 436.363 193.406 433.739 192.783 431.699C192.39 429.827 192.43 428.377 192.548 426.386C192.798 423.517 193.657 420.735 195.068 418.224C195.569 417.251 196.326 416.361 196.942 415.472C198.338 417.9 198.604 421.053 198.093 423.532C197.283 427.096 195.278 430.844 196.803 434.493C197.422 436.248 198.609 437.854 200.494 438.315C201.523 438.643 202.661 438.63 203.662 439.044C204.235 439.248 204.783 439.518 205.295 439.848L205.552 439.93C205.601 439.917 205.647 439.893 205.687 439.86C205.727 439.828 205.76 439.787 205.783 439.742C205.807 439.696 205.821 439.646 205.824 439.595C205.827 439.544 205.82 439.492 205.802 439.444C206.252 438.927 206.574 437.331 206.769 437.016C209.056 430.762 212.54 426.967 210.173 419.604C209.883 418.667 209.529 417.749 209.115 416.86C209.768 416.738 210.392 416.56 211.045 416.438C214.593 415.542 218.354 415.752 221.394 417.62C222.396 418.177 223.745 418.985 224.35 419.603C224.724 419.911 224.93 420.449 225.415 420.557C226.353 420.432 225.57 419.19 225.506 418.651C224.674 415.79 224.242 413.009 224.378 410.221C224.404 405.274 227.111 400.806 228.476 395.957C229.449 391.737 228.596 387.171 226.614 383.328C223.846 378.102 217.686 374.908 211.904 377.024L210.999 377.49C208.888 374.787 205.734 372.977 202.503 371.851C200.445 371.051 198.277 370.736 196.19 370.022C192.472 368.646 188.12 366.595 184.618 368.969C184.673 368.797 184.757 368.683 184.785 368.597C187.017 364.874 187.133 360.381 187.537 356.169C187.618 354.119 187.966 352.088 188.574 350.129C188.578 350.137 188.583 350.143 188.59 350.149C188.596 350.154 188.603 350.158 188.611 350.161C188.619 350.163 188.628 350.164 188.636 350.164C188.645 350.163 188.653 350.16 188.66 350.156C189.996 349.97 191.258 350.75 192.798 350.959C194.189 351.094 195.589 351.115 196.984 351.022C197.306 351.786 197.628 352.549 198.121 353.226C199.278 354.775 200.858 355.893 202.632 356.696C206.611 358.439 208.42 355.006 210.15 352.113C210.793 351.139 211.896 350.5 212.995 349.577C214.096 348.666 215.002 347.543 215.659 346.275C216.717 344.301 217.086 341.823 216.206 339.702C215.563 338.316 214.076 337.794 212.704 337.356C210.59 336.728 208.451 336.469 206.392 335.67C204.905 335.148 203.557 334.34 201.986 333.932C200.787 333.549 199.478 333.65 198.255 333.778C196.947 334.066 195.614 334.225 194.275 334.253C195.033 331.003 195.645 327.47 197.582 325.258C199.293 323.162 201.845 322.278 204.434 322.161C204.819 322.116 205.209 322.16 205.575 322.29C206.681 324.295 208.072 326.296 210.357 326.979C211.988 327.642 214.034 327.304 215.272 326.095C215.476 325.842 215.645 325.563 215.774 325.265C216.753 328.551 218.825 330.345 222.409 330.074C223.405 330.062 224.371 329.851 225.365 329.697C225.763 329.635 226.217 329.545 226.529 329.313C227.206 328.822 227.278 327.712 226.561 327.295C225.53 326.824 224.284 327.322 223.233 327.505C222.069 327.747 221.333 328.126 220.446 327.795C219.073 327.215 217.858 325.694 216.649 324.6C218.495 324.151 220.134 323.165 221.196 321.617C222.376 320.294 223.706 319.682 225.495 319.262C227.17 318.9 228.985 318.395 230.136 317.017C231.76 314.751 231.773 311.169 229.614 309.205C226.39 306.288 222.568 308.04 222.679 312.417C222.667 313.781 222.859 315.542 222.557 316.484C222.116 317.711 221.047 318.691 219.661 319.475C218.5 320.001 217.312 320.612 216.527 321.589C216.516 318.376 214.276 316.811 211.574 314.627C209.406 312.885 206.913 311.592 204.24 310.821C203.154 310.521 201.925 310.081 200.791 310.521C199.574 311.075 199.848 312.58 200.514 313.453C201.908 315.739 204.658 317.184 204.801 319.542C204.949 319.966 204.729 320.651 204.793 321.191C202.03 321.11 199.139 322.169 197.286 324.267C194.727 326.942 194.289 330.671 193.476 334.093C191.257 334.233 188.98 334.261 186.763 334.544C186.678 334.516 186.621 334.545 186.537 334.66C186.466 334.625 186.385 334.616 186.309 334.634C186.24 334.66 186.18 334.702 186.132 334.758C186.085 334.814 186.054 334.881 186.04 334.953C186.027 335.024 186.032 335.098 186.056 335.167C186.079 335.237 186.12 335.298 186.175 335.347C188.316 336.43 190.177 337.993 191.611 339.915C190.149 343.742 188.344 347.46 187.396 351.451C186.451 355.727 186.823 360.47 185.674 364.351C185.185 366.318 184.29 367.637 183.459 369.495C183.543 369.38 183.431 369.58 183.32 369.781C183.076 370.026 182.885 370.318 182.761 370.641L182.675 370.613C178.302 369.216 173.93 372.538 170.217 373.806C168.997 374.219 167.662 374.406 166.667 374.56C165.587 374.687 162.542 374.752 164.695 376.289C166.877 377.741 169.283 378.935 171.409 380.558C172.618 381.652 173.748 383.287 174.565 384.869C176.753 389.249 178.436 394.176 181.557 398.004C181.529 398.097 181.531 398.196 181.56 398.288C182.872 400.831 181.681 403.518 179.107 404.914C177.919 405.525 176.07 405.69 174.628 406.503C170.508 404.762 166.017 407.716 163.781 411.155C162.918 412.814 162.629 414.751 162.566 416.571C162.562 417.131 162.588 417.69 162.643 418.247C162.547 418.121 162.421 418.021 162.275 417.958C162.13 417.895 161.97 417.871 161.813 417.888C160.335 418.076 159.364 420.22 158.775 420.881C157.989 421.858 156.684 422.243 155.491 422.428C156.957 418.885 157.532 414.585 157.613 411.969C157.603 411.116 157.819 410.147 157.695 409.352C157.749 409.328 157.797 409.292 157.836 409.247C157.874 409.203 157.903 409.15 157.92 409.094C157.998 408.553 159.241 407.77 159.771 406.854C160.413 405.737 160.596 404.427 160.58 403.148C160.719 400.503 159.635 397.985 157.987 395.901C156.423 393.703 153.592 392.657 151.615 391.601C148.891 390.07 146.677 388.277 145.647 385.447C145.192 384.155 145.02 382.78 145.142 381.416C145.433 379.622 145.313 376.751 142.756 377.209C139.166 379.271 139.299 387.855 140.225 391.455C141.544 396.925 143.813 403.266 142.936 408.366C142.614 409.961 141.916 411.107 140.777 411.121C140.692 411.093 140.634 411.123 140.549 411.095C139.378 408.409 137.867 405.897 136.299 403.414C136.183 403.188 136.039 403.048 135.922 402.821C136.502 401.98 136.97 401.067 137.313 400.104C137.771 398.878 138.099 397.607 138.291 396.312C138.602 396.08 138.423 395.457 138.391 395.116C138.228 393.412 137.355 391.859 136.681 390.275C135.569 387.844 135.507 385.087 134.451 382.484C133.049 379.63 130.259 377.276 127.039 377.002C126.783 376.973 126.523 376.985 126.271 377.04C125.948 374.935 125.808 372.806 125.852 370.676C127.383 370.175 128.765 369.106 129.315 367.536C129.632 366.838 129.779 366.076 129.744 365.311C131.503 364.835 133.401 364.073 134.149 362.33C134.313 361.816 134.478 361.302 134.586 360.818C135.017 361.659 135.563 362.437 136.208 363.129C138.539 365.148 140.862 361.879 141.921 360.047C143.428 357.555 146.707 355.582 147.693 352.357C148.793 349.217 148.433 345.326 146.068 342.825C144.481 341.138 142.304 339.971 140.02 339.43C138.288 339.167 136.518 339.385 134.903 340.061L134.846 340.09C133.521 339.25 132.009 338.751 130.444 338.636C128.164 338.38 126.041 339.4 123.857 340.024C123.241 340.163 122.607 340.199 121.979 340.131L121.894 340.104C121.823 340.069 121.742 340.06 121.666 340.078C120.731 338.128 119.796 336.178 118.975 334.169C118.271 332.529 117.539 330.832 116.863 329.106C117.855 329.24 118.864 329.16 119.821 328.871C121.382 328.426 122.587 326.876 122.452 325.228C122.355 324.206 121.83 323.189 121.878 322.449C121.842 321.824 122.377 321.334 122.85 320.447C123.572 318.932 122.81 317.178 121.968 315.824C120.546 313.624 117.686 312.521 115.073 313.008C114.135 313.133 113.478 312.97 112.65 312.753C114.282 311.198 114.762 308.52 115.995 306.884C116.274 306.531 116.584 306.204 116.922 305.906C116.9 305.984 116.903 306.066 116.929 306.142C116.955 306.218 117.005 306.284 117.07 306.331C117.079 306.462 117.119 306.588 117.188 306.699C117.859 309.225 119.052 311.583 120.689 313.622C121.934 315.341 123.716 316.713 125.909 316.8C127.078 316.984 128.153 316.431 129.086 315.88C130.132 315.27 131.207 314.717 132.282 314.164C133.644 313.479 135.179 313.214 136.693 313.403C138.206 313.593 139.628 314.227 140.779 315.227C141.554 315.757 142.165 316.802 143 317.588C143.05 317.672 143.127 317.736 143.219 317.77C143.311 317.804 143.411 317.806 143.504 317.775C143.597 317.744 143.676 317.682 143.729 317.599C143.781 317.517 143.804 317.419 143.794 317.322C143.734 317.067 143.475 316.843 143.358 316.617C141.88 314.446 140.792 311.644 139.141 309.276C136.997 306.232 134.653 303.076 131.468 301.068C129.347 299.871 126.837 299.447 124.417 299.476C123.214 299.495 122.031 299.792 120.961 300.342C119.892 300.893 118.964 301.682 118.249 302.65C117.787 303.33 117.422 304.071 117.166 304.852C117.063 304.894 116.975 304.964 116.912 305.054C114.851 306.472 114.423 308.695 113.365 310.669C112.807 311.671 112.388 312.245 111.568 312.738L111.341 312.854C109.971 307.839 108.827 302.707 109.193 297.728C109.21 297.469 109.245 297.212 109.298 296.959C109.696 296.897 110.123 296.892 110.491 296.774C111.939 296.387 112.777 295.097 113.187 293.671C113.847 291.758 113.905 289.511 112.66 287.792C112.457 287.539 112.138 287.059 111.823 286.864C111.86 286.764 111.878 286.658 111.876 286.551C112.88 287.107 113.871 286.669 114.689 286.034L114.718 286.09C115.092 286.398 115.659 286.249 116.088 286.386C116.487 286.467 117.6 286.681 117.945 286.932C119.034 287.516 119.499 288.278 120.223 289.264C120.86 290.076 121.703 290.704 122.664 291.083C124.784 292.137 127.346 292.106 128.478 293.883C129.376 295.209 129.972 297.333 131.157 298.798C131.794 299.596 132.508 300.331 133.29 300.989C133.693 301.354 134.182 301.746 134.724 301.825C136.12 301.893 135.334 300.51 135.097 299.773C134.746 298.74 134.551 297.659 134.517 296.568C134.438 294.749 135.472 293.145 135.419 291.098C135.513 289.477 135.01 287.948 134.225 286.564C133.267 284.677 131.883 283.04 130.181 281.78C128.954 280.888 127.549 280.273 126.061 279.977C124.572 279.681 123.038 279.711 121.563 280.065C120.145 280.509 118.96 281.404 117.802 282.214C116.081 283.458 114.371 285.696 112.893 285.884C112.353 285.948 112.352 285.806 111.864 285.556C112.236 283.362 112.495 281.227 112.867 279.033C113.132 277.466 113.935 275.552 114.997 273.862C115.083 273.889 115.14 273.86 115.252 273.802C116.326 273.106 117.814 273.771 119.471 274.205C122.437 274.681 125.541 274.729 125.494 270.891C125.481 269.755 125.378 268.306 125.595 267.479C125.948 266.082 126.413 264.484 125.685 263.071C126.869 262.176 128.083 261.336 129.327 260.554C131.438 259.274 133.677 258.218 136.007 257.402C136.866 257.818 137.727 258.376 138.668 258.536C140.494 258.883 142.883 258.655 144.423 258.864C146.279 259.268 147.515 260.276 149.29 261.079C151.149 261.767 153.222 261.344 155.158 261.349C155.784 261.314 157.152 261.467 156.571 260.479C153.134 256.456 149.327 252.408 144.349 250.393C140.773 249.015 134.858 249.484 133.772 253.904C133.788 255.183 134.311 256.058 134.495 257.108C133.877 257.34 133.272 257.604 132.682 257.898C130.055 259.131 127.571 260.648 125.276 262.423C124.55 261.295 123.429 260.37 122.338 259.644C121.133 258.834 119.956 258.081 118.555 257.586C115.81 256.567 112.756 258.282 110.604 259.246C109.747 259.665 108.804 259.88 107.85 259.876C107.082 259.914 106.226 259.782 105.606 260.245C104.534 261.083 104.781 262.671 105.335 263.745C105.714 264.48 106.516 264.925 107.261 265.257C108.434 265.726 110.425 265.56 111.28 265.691C112.364 265.849 113.081 266.267 113.602 266.999C113.819 267.336 113.924 267.733 113.901 268.133C113.853 268.873 113.633 269.558 113.642 270.268C113.539 271.18 113.92 272.056 114.441 272.789C114.488 272.888 114.557 272.975 114.644 273.042C113.442 274.876 112.526 276.85 112.154 279.042C111.729 281.549 111.474 283.969 110.991 286.363C110.878 286.285 110.752 286.229 110.619 286.197C107.728 284.896 103.84 281.247 100.193 283.338C98.4369 284.099 97.151 286.047 95.9097 286.972C93.4817 288.651 90.8409 289.223 88.1486 287.891C85.9743 287.007 85.3948 288.521 86.5266 290.298C87.4254 291.624 88.6909 292.689 90.068 293.553C91.1586 294.279 92.3332 294.89 93.6999 294.902C95.7763 294.763 98.0138 293.826 99.669 294.119C101.238 294.384 102.699 295.134 104.186 295.657C105.501 296.124 106.986 296.504 108.438 296.543C108.386 296.797 108.351 297.053 108.334 297.312C108.137 299.844 108.367 302.372 108.739 304.898C109.166 307.252 109.679 309.634 110.306 311.958C109.533 311.629 108.684 311.521 107.853 311.647C106.262 311.893 104.964 312.847 103.491 313.462C102.131 314.019 100.027 314.243 99.103 313.146C98.0929 312.021 97.3622 310.466 95.8189 309.973C94.6196 309.732 94.7816 311.293 94.8194 312.061C94.8641 313.396 95.5055 314.639 96.1744 315.796C97.2537 317.694 98.7539 319.319 100.56 320.548C102.77 322.056 104.857 322.77 107.093 324.051C108.873 325.281 110.628 326.738 112.687 327.537C113.708 327.981 114.771 328.321 115.86 328.551C116.388 329.852 116.945 331.21 117.473 332.511C119.377 336.895 121.506 341.02 123.039 345.379C120.3 344.929 117.564 344.621 114.984 343.231C113.552 342.537 111.69 341.565 110.167 340.418C108.385 339.046 104.817 335.878 103.665 339.473C103.233 341.412 103.998 343.449 105.099 345.028C106.632 347.028 108.62 348.937 109.556 351.029C111.386 356.38 112.601 362.62 117.121 366.801C118.906 368.457 120.865 370.309 123.401 370.506C123.927 370.523 124.453 370.469 124.965 370.345C124.939 370.573 124.97 370.771 124.944 370.999C124.968 372.855 125.133 374.706 125.439 376.537C121.231 376.986 117.276 379.593 114.61 382.752C111.567 386.765 109.128 391.2 107.369 395.917C106.82 397.629 105.731 399.405 106.295 401.19C106.797 402.719 108.49 403.779 110.114 403.873C111.338 403.887 112.47 403.304 113.632 402.921C114.076 402.753 114.531 402.614 114.994 402.506C114.804 403.851 114.281 405.128 113.472 406.22C112.269 407.912 110.411 409.726 109.385 411.899C108.348 411.281 107.188 410.896 105.986 410.774C104.785 410.651 103.571 410.792 102.43 411.187C99.453 412.218 97.4356 414.83 95.182 416.847C93.8037 418.2 92.8176 419.065 90.886 419.344C89.1524 419.593 86.2732 419.286 84.2602 419.965C82.1888 420.53 80.7571 422.196 79.9257 424.054C77.618 428.602 77.8534 433.916 77.9139 438.891C78.1133 443.579 78.0571 448.327 78.7965 452.952C79.1585 454.625 79.3251 456.613 80.0264 458.112C81.3858 459.914 82.3713 456.688 82.7349 456.145ZM192.421 340.927C193.235 342.367 193.851 343.838 194.553 345.336C195.223 346.636 195.921 347.85 196.479 349.208C196.667 349.59 196.825 349.988 196.949 350.396C195.412 350.471 193.704 350.492 192.476 350.194C191.42 349.951 190.36 349.424 189.251 349.494C189.205 349.511 189.154 349.511 189.108 349.496C190.013 346.671 191.26 343.812 192.421 340.927ZM183.905 371.052C184.091 370.942 184.23 370.768 184.297 370.563C187.251 367.543 191.224 369.001 195.515 370.655C198.204 371.703 201.083 372.009 203.688 373.171C205.833 373.998 208.301 375.589 209.77 377.049C210.088 377.351 210.377 377.681 210.636 378.034C208.292 379.455 206.466 381.609 205.702 384.291C204.049 388.86 204.113 394.119 203.056 398.453C202.154 401.563 200.736 404.366 198.572 406.695C196.917 404.042 194.301 404.245 191.521 405.103C190.131 405.461 189.08 405.644 188.387 404.857C187.868 404.267 187.545 403.502 187.136 402.712C187.337 402.823 187.594 402.905 187.795 403.016C189.223 403.425 190.787 403.264 192.207 402.962C195.355 401.986 196.706 398.359 197.126 395.425C197.193 394.592 197.056 393.754 196.726 392.985C197.282 392.899 197.818 392.719 198.314 392.454C199.36 391.845 200.145 390.869 200.874 389.921C202.609 387.455 202.998 384.323 202.279 381.404C200.752 375.253 195.661 373.297 189.795 373.169C187.801 373.051 185.655 372.224 183.567 371.368C183.82 371.166 183.848 371.081 183.905 371.052ZM176.824 406.873C178.271 406.486 179.748 406.155 180.874 405.147C182.106 404.067 182.89 402.567 183.072 400.941C183.1 400.483 183.056 400.023 182.942 399.578C183.085 399.718 183.23 399.859 183.403 400.056C182.801 402.081 182.628 404.244 182.512 406.378C182.469 407.544 182.54 408.652 183.037 409.754C183.066 409.811 183.01 409.84 183.039 409.897C184.09 412.074 186.335 414.065 187.438 415.786C188.691 418.216 187.675 421.241 186.104 423.194C184.393 425.29 182.25 426.965 180.194 428.809L180.107 428.64C179.755 427.986 179.285 427.403 178.719 426.922C176.589 425.015 173.653 424.738 171.613 423.142C170.694 422.471 170.28 421.253 170.812 420.479C170.868 420.449 170.896 420.364 170.952 420.336C171.263 420.104 171.602 419.93 171.913 419.699C174.371 418.219 177.024 416.282 177.5 413.319C177.667 411.843 177.621 410.35 177.361 408.886C177.219 408.206 177.04 407.534 176.824 406.873ZM124.059 424.656C124.309 424.573 124.565 424.513 124.826 424.476C125.651 424.41 126.079 424.547 126.908 424.764C128.995 425.478 131.232 426.901 133.549 427.782C133.492 427.811 133.492 427.811 133.465 427.897C132.861 429.78 131.481 430.991 129.38 431.5C127.676 431.804 126.409 432.958 125.486 434.362C125.24 434.7 125.016 435.054 124.816 435.422C125.008 434.823 125.257 434.194 125.449 433.595C125.893 431.924 125.969 430.177 125.671 428.475C125.428 427.169 124.814 425.84 124.059 424.656ZM114.481 407.203C115.405 405.941 115.815 404.515 116.024 402.977C116.535 402.857 117.075 402.794 117.529 402.703C120.173 402.415 122.374 403.07 124.387 404.752C125.911 406.041 127.69 407.129 129.711 407.161C132.186 406.96 134.247 405.542 135.704 403.648C137.649 406.723 139.508 409.771 140.832 413.309C141.566 415.148 142.043 416.905 142.549 418.718C142.089 418.966 141.562 419.062 141.043 418.992C140.075 418.918 138.643 418.225 137.471 417.898C133.786 416.862 129.892 417.365 126.32 418.488C124.562 419.106 122.698 420.351 121.306 420.567C121.144 420.566 120.983 420.578 120.823 420.602C117.943 420.295 115.027 419.222 113.373 416.712C112.591 415.612 112.007 414.34 110.971 413.443C110.741 413.275 110.511 413.107 110.252 412.883C111.309 410.908 112.998 409.324 114.481 407.202V407.203Z" fill="url(#paint0_linear_964_182)"/>
<path fill-rule="evenodd" clip-rule="evenodd" d="M135.676 482.646C136.311 487.132 138.423 491.743 141.317 496.201C145.038 501.929 149.927 507.46 153.721 512.171C157.059 516.401 160.588 520.424 164.25 524.304C167.927 528.195 171.781 531.896 175.798 535.454C181.137 540.208 186.785 544.605 192.706 548.614C206.66 558.018 222.727 565.511 241.687 570.417C242.16 570.525 242.649 570.538 243.127 570.457C243.605 570.376 244.062 570.201 244.472 569.943C244.882 569.686 245.238 569.35 245.518 568.955C245.798 568.56 245.998 568.114 246.105 567.642C246.213 567.17 246.226 566.682 246.145 566.205C246.064 565.728 245.889 565.271 245.631 564.862C245.373 564.452 245.037 564.097 244.641 563.817C244.246 563.537 243.799 563.338 243.326 563.23C224.854 559.544 208.875 553.416 195.098 544.926C189.173 541.296 183.57 537.165 178.352 532.578C174.446 529.12 170.762 525.419 167.322 521.498C163.896 517.571 160.672 513.473 157.664 509.219C154.312 504.415 149.897 498.78 146.722 492.98C144.699 489.278 143.237 485.518 143.03 481.929C142.931 480.959 142.45 480.067 141.694 479.449C140.938 478.832 139.968 478.538 138.996 478.633C138.024 478.728 137.129 479.203 136.507 479.956C135.885 480.708 135.586 481.675 135.676 482.646L135.676 482.646ZM244.74 130.137C247.797 127.731 251.238 125.864 254.87 124.374C260.555 122.038 266.684 120.575 272.546 119.37C286.132 116.611 300.234 115.98 313.878 118.048C327.538 120.118 340.695 124.869 352.405 132.677C362.181 139.291 370.849 147.401 379.605 155.332C385.556 160.739 391.552 166.067 398.02 170.753C404.975 175.812 412.462 180.144 420.952 183.083C427.967 185.53 435.04 186.67 442.143 187.214C458.298 188.452 474.615 186.423 490.726 189.887C497.385 191.329 503.469 193.85 509.184 197.031C517.985 201.927 525.915 208.4 533.756 215.029C534.13 215.339 534.561 215.573 535.026 215.717C535.49 215.86 535.979 215.911 536.463 215.865C536.947 215.82 537.418 215.679 537.847 215.452C538.277 215.224 538.657 214.914 538.966 214.539C539.276 214.164 539.508 213.732 539.649 213.268C539.791 212.803 539.839 212.315 539.791 211.832C539.743 211.349 539.601 210.879 539.371 210.452C539.141 210.024 538.828 209.645 538.452 209.338C530.079 202.646 521.603 196.158 512.285 191.296C505.935 187.989 499.231 185.415 491.907 184.029C475.457 180.891 458.917 183.302 442.467 182.398C435.748 182.03 429.044 181.085 422.37 178.905C414.248 176.229 407.056 172.222 400.367 167.484C393.973 162.957 388.037 157.791 382.189 152.487C373.3 144.428 364.617 136.064 354.738 129.265C342.644 120.833 328.94 115.637 314.69 113.109C300.47 110.586 285.688 110.744 271.394 113.209C265.089 114.28 258.503 115.644 252.345 117.925C248.033 119.521 243.943 121.584 240.266 124.272C239.487 124.864 238.976 125.742 238.845 126.711C238.714 127.679 238.973 128.661 239.567 129.438C240.16 130.216 241.039 130.727 242.009 130.857C242.979 130.988 243.962 130.729 244.741 130.136L244.74 130.137Z" fill="#F5F2FD"/>
<path fill-rule="evenodd" clip-rule="evenodd" d="M382.569 248.823C382.567 242.485 380.045 236.406 375.558 231.923C371.07 227.441 364.984 224.92 358.637 224.916H182.065C175.718 224.92 169.632 227.441 165.144 231.923C160.657 236.406 158.135 242.485 158.133 248.823V497.902C158.135 504.241 160.657 510.319 165.144 514.803C169.632 519.286 175.718 521.806 182.065 521.811H358.638C364.985 521.806 371.071 519.286 375.559 514.803C380.046 510.319 382.568 504.241 382.57 497.902L382.569 248.823Z" fill="white"/>
<mask id="mask0_964_182" style="mask-type:luminance" maskUnits="userSpaceOnUse" x="158" y="224" width="225" height="298">
<path d="M382.569 248.823C382.567 242.485 380.045 236.406 375.558 231.923C371.07 227.441 364.984 224.92 358.637 224.916H182.065C175.718 224.92 169.632 227.441 165.144 231.923C160.657 236.406 158.135 242.485 158.133 248.823V497.902C158.135 504.241 160.657 510.319 165.144 514.803C169.632 519.286 175.718 521.806 182.065 521.811H358.638C364.985 521.806 371.071 519.286 375.559 514.803C380.046 510.319 382.568 504.241 382.57 497.902L382.569 248.823Z" fill="white"/>
</mask>
<g mask="url(#mask0_964_182)">
<path fill-rule="evenodd" clip-rule="evenodd" d="M409.185 263.853V229.565C409.185 226.999 406.605 224.916 403.435 224.916H137.271C134.101 224.916 131.521 226.999 131.521 229.565V263.853C131.521 266.419 134.101 268.502 137.271 268.502H403.435C406.605 268.502 409.185 266.419 409.185 263.853Z" fill="#323B4B"/>
<path d="M183.055 252.614C186.321 252.614 188.969 249.97 188.969 246.708C188.969 243.447 186.321 240.803 183.055 240.803C179.789 240.803 177.141 243.447 177.141 246.708C177.141 249.97 179.789 252.614 183.055 252.614Z" fill="white"/>
<path d="M201.792 252.614C205.058 252.614 207.706 249.97 207.706 246.708C207.706 243.447 205.058 240.803 201.792 240.803C198.526 240.803 195.878 243.447 195.878 246.708C195.878 249.97 198.526 252.614 201.792 252.614Z" fill="white"/>
<path d="M221.095 252.614C224.362 252.614 227.009 249.97 227.009 246.708C227.009 243.447 224.362 240.803 221.095 240.803C217.829 240.803 215.182 243.447 215.182 246.708C215.182 249.97 217.829 252.614 221.095 252.614Z" fill="white"/>
</g>
<path d="M223.246 373.361C245.719 373.361 263.937 355.168 263.937 332.727C263.937 310.285 245.719 292.092 223.246 292.092C200.773 292.092 182.555 310.285 182.555 332.727C182.555 355.168 200.773 373.361 223.246 373.361Z" fill="#E3E3FE"/>
<mask id="mask1_964_182" style="mask-type:luminance" maskUnits="userSpaceOnUse" x="182" y="292" width="82" height="82">
<path d="M223.246 373.361C245.719 373.361 263.937 355.168 263.937 332.727C263.937 310.285 245.719 292.092 223.246 292.092C200.773 292.092 182.555 310.285 182.555 332.727C182.555 355.168 200.773 373.361 223.246 373.361Z" fill="white"/>
</mask>
<g mask="url(#mask1_964_182)">
<path fill-rule="evenodd" clip-rule="evenodd" d="M182.883 352.883C202.832 321.225 212.047 319.508 223.24 332.095C234.448 344.682 237.874 348.382 250.677 342.575C263.465 336.768 269.431 343.062 273.374 351.738C277.317 360.415 224.614 384.161 214.868 383.969C205.121 383.777 162.918 384.542 182.883 352.883Z" fill="url(#paint1_linear_964_182)"/>
</g>
<path d="M246.159 324.789C254.056 324.789 260.457 318.397 260.457 310.511C260.457 302.626 254.056 296.233 246.159 296.233C238.263 296.233 231.861 302.626 231.861 310.511C231.861 318.397 238.263 324.789 246.159 324.789Z" fill="url(#paint2_linear_964_182)"/>
<path fill-rule="evenodd" clip-rule="evenodd" d="M262.317 405.556C262.319 405.085 262.227 404.618 262.047 404.183C261.867 403.747 261.603 403.352 261.269 403.019C260.935 402.686 260.538 402.422 260.102 402.243C259.665 402.064 259.197 401.973 258.726 401.975H194.231C193.76 401.975 193.294 402.067 192.859 402.247C192.424 402.427 192.03 402.691 191.697 403.024C191.365 403.357 191.101 403.752 190.922 404.186C190.743 404.621 190.652 405.086 190.653 405.556V405.559C190.652 406.029 190.743 406.495 190.922 406.929C191.101 407.364 191.365 407.759 191.697 408.092C192.029 408.424 192.424 408.688 192.859 408.868C193.294 409.048 193.76 409.14 194.231 409.14H258.726C259.197 409.142 259.665 409.051 260.102 408.872C260.538 408.693 260.935 408.43 261.269 408.097C261.603 407.764 261.867 407.368 262.047 406.933C262.227 406.497 262.319 406.03 262.317 405.559V405.556Z" fill="#E3E3FE"/>
<path fill-rule="evenodd" clip-rule="evenodd" d="M371.922 339.456C371.92 336.594 370.78 333.85 368.752 331.827C366.724 329.804 363.975 328.668 361.109 328.668H286.488C285.07 328.668 283.665 328.947 282.355 329.49C281.045 330.032 279.855 330.827 278.852 331.829C277.85 332.831 277.055 334.02 276.513 335.329C275.971 336.638 275.693 338.04 275.694 339.456V339.459C275.693 340.875 275.971 342.278 276.513 343.587C277.055 344.895 277.85 346.084 278.853 347.086C279.855 348.088 281.045 348.882 282.356 349.424C283.666 349.966 285.07 350.245 286.488 350.245H361.109C363.975 350.246 366.724 349.111 368.752 347.088C370.779 345.065 371.92 342.321 371.922 339.459V339.456Z" fill="#EFEFFE"/>
<path fill-rule="evenodd" clip-rule="evenodd" d="M257.834 455.524C257.834 454.575 257.457 453.665 256.786 452.994C256.114 452.322 255.204 451.944 254.254 451.943H192.233C191.283 451.944 190.373 452.322 189.702 452.994C189.03 453.665 188.653 454.575 188.653 455.524V455.527C188.653 456.475 189.03 457.385 189.702 458.056C190.373 458.728 191.283 459.106 192.233 459.107H254.255C255.205 459.106 256.115 458.728 256.786 458.056C257.458 457.385 257.835 456.475 257.835 455.527L257.834 455.524ZM342.557 455.12C342.557 454.171 342.18 453.261 341.509 452.59C340.838 451.918 339.927 451.54 338.977 451.539H276.957C276.007 451.54 275.096 451.918 274.425 452.59C273.754 453.261 273.377 454.171 273.377 455.12V455.122C273.377 456.071 273.754 456.981 274.425 457.652C275.096 458.324 276.007 458.701 276.957 458.703H338.978C339.928 458.701 340.839 458.324 341.51 457.652C342.181 456.981 342.558 456.071 342.558 455.122L342.557 455.12ZM342.554 418.846C342.556 418.376 342.465 417.91 342.286 417.476C342.107 417.041 341.844 416.646 341.511 416.314C340.833 415.642 339.918 415.265 338.963 415.265H194.247C193.293 415.265 192.377 415.642 191.699 416.314C191.367 416.646 191.103 417.041 190.924 417.476C190.745 417.91 190.653 418.376 190.655 418.846V418.849C190.653 419.319 190.745 419.784 190.924 420.219C191.103 420.653 191.367 421.048 191.699 421.38C192.377 422.052 193.293 422.429 194.247 422.429H338.963C339.918 422.429 340.833 422.052 341.511 421.38C341.843 421.048 342.107 420.653 342.286 420.219C342.465 419.784 342.556 419.318 342.554 418.849V418.846ZM257.834 468.813C257.834 467.864 257.457 466.955 256.786 466.283C256.114 465.612 255.204 465.234 254.254 465.232H192.233C191.283 465.234 190.373 465.612 189.702 466.283C189.03 466.955 188.653 467.864 188.653 468.813V468.816C188.653 469.764 189.03 470.674 189.702 471.346C190.373 472.017 191.283 472.395 192.233 472.396H254.255C255.205 472.395 256.115 472.017 256.786 471.346C257.458 470.674 257.835 469.764 257.835 468.816L257.834 468.813ZM342.557 468.409C342.557 467.46 342.18 466.55 341.509 465.879C340.838 465.208 339.927 464.83 338.977 464.828H276.957C276.007 464.83 275.096 465.208 274.425 465.879C273.754 466.551 273.377 467.46 273.377 468.409V468.412C273.377 469.36 273.754 470.27 274.425 470.941C275.096 471.613 276.007 471.991 276.957 471.992H338.978C339.928 471.991 340.839 471.613 341.51 470.942C342.181 470.27 342.558 469.36 342.558 468.412L342.557 468.409ZM342.554 432.942C342.556 432.472 342.465 432.006 342.286 431.572C342.107 431.137 341.844 430.742 341.511 430.41C340.833 429.738 339.918 429.361 338.963 429.361H194.247C193.293 429.361 192.377 429.738 191.699 430.41C191.367 430.742 191.103 431.137 190.924 431.571C190.744 432.006 190.653 432.472 190.655 432.942V432.944C190.653 433.414 190.745 433.88 190.924 434.315C191.103 434.749 191.367 435.144 191.699 435.476C192.377 436.148 193.293 436.525 194.247 436.525H338.963C339.918 436.524 340.833 436.148 341.511 435.476C341.843 435.144 342.107 434.749 342.286 434.314C342.465 433.88 342.556 433.414 342.554 432.944V432.942ZM257.834 482.909C257.834 481.96 257.457 481.05 256.786 480.379C256.114 479.708 255.204 479.329 254.254 479.328H192.233C191.283 479.329 190.373 479.708 189.702 480.379C189.03 481.05 188.653 481.96 188.653 482.909V482.912C188.653 483.86 189.03 484.77 189.702 485.441C190.373 486.113 191.283 486.491 192.233 486.492H254.255C255.205 486.491 256.115 486.113 256.786 485.441C257.458 484.77 257.835 483.86 257.835 482.912L257.834 482.909ZM342.557 482.505C342.557 481.556 342.18 480.646 341.509 479.975C340.838 479.304 339.927 478.925 338.977 478.924H276.957C276.007 478.925 275.096 479.304 274.425 479.975C273.754 480.646 273.377 481.556 273.377 482.505V482.508C273.377 483.456 273.754 484.366 274.425 485.037C275.096 485.709 276.007 486.086 276.957 486.088H338.978C339.928 486.087 340.839 485.709 341.51 485.037C342.181 484.366 342.558 483.456 342.558 482.508L342.557 482.505Z" fill="#E3E3FE"/>
<path fill-rule="evenodd" clip-rule="evenodd" d="M522.584 266.964C536.759 266.964 547.093 279.997 545.076 297.689C543.644 310.226 528.321 323.279 513.158 329.534C500.062 334.939 499.992 315.165 499.992 297.359C499.992 279.554 508.42 266.964 522.584 266.964Z" fill="url(#paint3_linear_964_182)"/>
<path fill-rule="evenodd" clip-rule="evenodd" d="M511.774 361.057C525.402 392.589 434.085 493.613 403.644 491.02C373.196 488.414 329.096 345.448 329.096 345.448L316.267 328.669L350.111 332.946L347.755 337.534C347.755 337.534 395.485 420.51 408.457 426.723C414.907 429.815 431.721 379.024 467.412 358.829C506.331 336.826 503.979 343.021 511.774 361.057Z" fill="url(#paint4_linear_964_182)"/>
<mask id="mask2_964_182" style="mask-type:luminance" maskUnits="userSpaceOnUse" x="316" y="328" width="198" height="164">
<path d="M511.774 361.057C525.402 392.589 434.085 493.613 403.644 491.02C373.196 488.414 329.096 345.448 329.096 345.448L316.267 328.669L350.111 332.946L347.755 337.534C347.755 337.534 395.485 420.51 408.457 426.723C414.907 429.815 431.721 379.024 467.412 358.829C506.331 336.826 503.979 343.021 511.774 361.057Z" fill="white"/>
</mask>
<g mask="url(#mask2_964_182)">
<path fill-rule="evenodd" clip-rule="evenodd" d="M426.604 382.118C436.654 380.671 453.298 383.379 459.001 392.672C462.271 397.998 461.198 404.341 462.759 410.169C466.236 423.159 478.361 435.642 492.654 435.126C510.148 434.51 515.827 411.137 519.141 397.856C523.585 379.977 527.987 357.042 512.994 342.82C510.315 340.276 507.24 338.264 503.936 336.643C499.551 334.51 494.871 333.045 490.05 332.298C484.036 331.335 477.769 331.294 471.763 332.37C461.888 334.157 452.706 339.174 445.068 345.57C435.169 353.889 427.956 364.146 422.226 375.647L426.604 382.118Z" fill="url(#paint5_linear_964_182)"/>
</g>
<path fill-rule="evenodd" clip-rule="evenodd" d="M531.623 338.525C579.434 342.725 595.595 343.781 593.038 432.057C590.457 522.077 472.016 518.916 472.016 518.916C472.016 518.916 489.408 462.61 475.441 414.598C458.556 356.639 497.852 335.556 531.623 338.525Z" fill="url(#paint6_linear_964_182)"/>
<path fill-rule="evenodd" clip-rule="evenodd" d="M414.74 317.204C414.738 313.031 413.078 309.03 410.123 306.079C407.169 303.128 403.162 301.47 398.983 301.468H309.364C305.184 301.468 301.176 303.126 298.22 306.077C295.265 309.028 293.604 313.031 293.604 317.205C293.604 321.379 295.265 325.382 298.22 328.333C301.176 331.284 305.184 332.942 309.364 332.942H398.983C403.162 332.94 407.169 331.281 410.124 328.33C413.078 325.379 414.738 321.377 414.74 317.204Z" fill="#B5FFB4"/>
<path d="M317.009 310.339V312.659C316.449 312.551 315.881 312.493 315.311 312.487C313.804 312.487 312.697 312.808 311.988 313.449C311.279 314.093 310.866 315.175 310.777 316.701H310.895C311.501 315.652 312.519 315.128 313.952 315.128C315.178 315.128 316.152 315.513 316.876 316.282C317.599 317.052 317.954 318.106 317.954 319.443C317.954 320.908 317.54 322.066 316.713 322.915C315.886 323.766 314.749 324.191 313.317 324.191C312.376 324.213 311.451 323.953 310.659 323.445C309.881 322.92 309.283 322.169 308.946 321.293C308.562 320.355 308.37 319.224 308.37 317.9C308.37 315.374 308.931 313.462 310.083 312.165C311.235 310.869 312.933 310.219 315.192 310.219C315.8 310.212 316.407 310.253 317.009 310.339ZM315.414 319.513C315.414 318.801 315.237 318.253 314.882 317.87C314.513 317.487 313.996 317.295 313.317 317.295C312.706 317.276 312.111 317.486 311.649 317.885C311.44 318.046 311.271 318.251 311.153 318.486C311.036 318.721 310.973 318.979 310.969 319.242C310.944 319.934 311.17 320.612 311.604 321.151C311.803 321.378 312.045 321.563 312.317 321.695C312.588 321.827 312.883 321.903 313.185 321.919C313.486 321.935 313.788 321.891 314.072 321.788C314.356 321.686 314.617 321.527 314.838 321.322C315.222 320.923 315.414 320.32 315.414 319.513ZM330.743 316.843V316.912C332.914 317.182 334.006 318.267 334.006 320.168C334.006 321.419 333.548 322.402 332.603 323.117C331.673 323.832 330.329 324.191 328.587 324.191C327.095 324.191 325.796 323.945 324.688 323.455V321.035C325.853 321.603 327.129 321.907 328.425 321.923C329.414 321.923 330.152 321.768 330.64 321.458C330.88 321.308 331.075 321.095 331.205 320.844C331.334 320.592 331.394 320.311 331.378 320.028C331.378 319.308 331.097 318.801 330.551 318.506C330.004 318.212 329.133 318.062 327.922 318.062H326.769V315.935H327.862C328.925 315.935 329.722 315.798 330.269 315.522C330.815 315.247 331.096 314.76 331.096 314.061C331.105 313.843 331.065 313.625 330.978 313.424C330.891 313.223 330.759 313.045 330.593 312.902C330.269 312.626 329.752 312.488 329.058 312.488C328.546 312.489 328.039 312.569 327.552 312.725C327 312.912 326.474 313.167 325.986 313.486L324.702 311.541C326.048 310.684 327.609 310.226 329.206 310.22C330.594 310.22 331.686 310.511 332.484 311.093C332.865 311.358 333.175 311.713 333.384 312.128C333.593 312.543 333.694 313.003 333.68 313.467C333.696 314.254 333.423 315.019 332.912 315.618C332.411 316.205 331.672 316.614 330.743 316.843ZM347.502 316.822C348.506 317.345 349.23 317.906 349.688 318.5C350.222 319.203 350.456 320.09 350.337 320.965C350.218 321.84 349.756 322.632 349.053 323.167C348.167 323.85 347.015 324.191 345.612 324.191C344.106 324.191 342.924 323.868 342.083 323.223C341.256 322.577 340.828 321.684 340.828 320.541C340.816 319.794 341.044 319.063 341.477 318.454C341.891 317.857 342.555 317.342 343.441 316.912C341.979 316.005 341.241 314.869 341.241 313.505C341.23 313.036 341.337 312.571 341.551 312.153C341.765 311.735 342.079 311.376 342.467 311.11C343.279 310.516 344.327 310.218 345.612 310.218C346.897 310.218 347.945 310.513 348.743 311.101C349.129 311.374 349.443 311.738 349.654 312.161C349.865 312.584 349.968 313.053 349.953 313.526C349.953 314.937 349.126 316.036 347.502 316.822ZM345.612 315.714C346.306 315.425 346.779 315.124 347.044 314.811C347.305 314.511 347.447 314.125 347.443 313.727C347.451 313.527 347.409 313.327 347.322 313.146C347.234 312.965 347.103 312.808 346.941 312.689C346.542 312.417 346.065 312.282 345.582 312.306C345.116 312.287 344.655 312.417 344.268 312.679C344.104 312.798 343.972 312.957 343.884 313.14C343.796 313.323 343.756 313.525 343.766 313.727C343.762 314.127 343.909 314.512 344.179 314.807C344.592 315.2 345.079 315.508 345.612 315.713V315.714ZM345.45 318.002C344.032 318.599 343.323 319.392 343.323 320.38C343.312 320.624 343.36 320.866 343.463 321.087C343.566 321.308 343.72 321.501 343.914 321.649C344.298 321.959 344.859 322.114 345.568 322.114C346.306 322.114 346.867 321.964 347.266 321.666C347.461 321.52 347.617 321.328 347.72 321.107C347.823 320.886 347.87 320.644 347.857 320.401C347.847 319.967 347.673 319.553 347.369 319.242C347.03 318.877 346.483 318.511 345.73 318.142L345.45 318.002ZM366.684 323.989H357.189V321.982L360.718 318.495C362.033 317.191 362.86 316.287 363.184 315.783C363.501 315.322 363.675 314.779 363.687 314.22C363.699 313.995 363.662 313.769 363.578 313.559C363.493 313.35 363.364 313.161 363.199 313.007C362.85 312.7 362.394 312.542 361.929 312.567C361.392 312.568 360.86 312.675 360.364 312.884C359.732 313.17 359.142 313.538 358.607 313.978L357.145 312.154C357.684 311.735 358.252 311.352 358.843 311.01C359.295 310.762 359.776 310.571 360.275 310.441C360.838 310.289 361.419 310.214 362.003 310.218C363.288 310.218 364.321 310.568 365.104 311.267C365.485 311.598 365.789 312.009 365.993 312.471C366.198 312.933 366.297 313.434 366.285 313.939C366.286 314.588 366.155 315.231 365.901 315.829C365.611 316.489 365.217 317.098 364.735 317.633C363.982 318.48 363.184 319.286 362.343 320.046L360.748 321.528V321.638H366.684L366.684 323.989ZM374.215 324.07V321.741C374.772 321.868 375.342 321.929 375.914 321.923C377.434 321.923 378.557 321.592 379.28 320.93C380.004 320.269 380.388 319.167 380.447 317.628H380.329C379.974 318.24 379.561 318.665 379.059 318.904C378.483 319.159 377.857 319.281 377.228 319.262C375.987 319.262 375.013 318.874 374.319 318.098C373.61 317.321 373.255 316.237 373.255 314.847C373.255 313.415 373.669 312.287 374.511 311.459C375.338 310.634 376.475 310.219 377.878 310.219C379.413 310.219 380.624 310.764 381.51 311.853C382.411 312.941 382.854 314.491 382.854 316.501C382.854 319.007 382.278 320.916 381.141 322.226C380.004 323.537 378.306 324.193 376.046 324.193C375.434 324.2 374.822 324.159 374.215 324.07ZM375.795 314.806C375.795 316.331 376.489 317.094 377.863 317.094C378.483 317.114 379.089 316.902 379.561 316.5C379.768 316.34 379.937 316.135 380.055 315.901C380.173 315.668 380.236 315.41 380.241 315.149C380.255 314.472 380.031 313.811 379.606 313.283C379.41 313.051 379.168 312.861 378.896 312.724C378.624 312.588 378.327 312.509 378.023 312.491C377.719 312.473 377.414 312.517 377.128 312.621C376.842 312.724 376.579 312.885 376.357 313.093C375.987 313.495 375.795 314.066 375.795 314.806ZM394.357 324.191C392.792 324.191 391.61 323.603 390.813 322.427C390.016 321.251 389.617 319.521 389.617 317.235C389.617 314.869 390.016 313.109 390.799 311.953C391.581 310.796 392.777 310.219 394.357 310.219C397.517 310.219 399.112 312.552 399.112 317.216C399.112 319.642 398.713 321.41 397.945 322.523C397.163 323.635 395.967 324.191 394.357 324.191ZM394.357 321.923C395.125 321.923 395.671 321.554 395.996 320.818C396.336 320.082 396.498 318.882 396.498 317.216C396.498 315.521 396.336 314.311 395.996 313.581C395.672 312.852 395.125 312.487 394.357 312.487C394.118 312.474 393.878 312.515 393.656 312.606C393.434 312.696 393.235 312.835 393.073 313.012C392.762 313.361 392.541 313.878 392.408 314.564C392.27 315.448 392.206 316.341 392.216 317.235C392.216 318.888 392.393 320.082 392.717 320.818C393.058 321.554 393.604 321.922 394.357 321.923Z" fill="#323B4B"/>
<path fill-rule="evenodd" clip-rule="evenodd" d="M342.925 332.942C342.777 331.187 346.572 325.125 348.151 324.19C349.673 323.294 352.242 325.582 352.404 327.336C352.552 329.091 350.632 333.782 349.052 334.715C347.472 335.649 343.072 334.695 342.925 332.942Z" fill="#FB9C9A"/>
<path fill-rule="evenodd" clip-rule="evenodd" d="M524.084 266.965C524.084 266.965 527.184 273.809 524.94 279.203C524.349 280.626 522.961 281.665 521.839 282.696C518.959 285.309 515.341 286.7 512.227 288.92C511.296 289.572 509.317 290.836 509.436 292.192C509.598 293.775 512.714 293.032 513.571 292.776C516.937 291.771 519.596 290.581 521.412 293.319C523.258 296.115 521.781 302.991 519.876 307.65C519.536 308.475 518.001 311.975 519.758 312.325C520.895 312.548 521.899 311.231 522.519 310.491C524.306 308.318 524.779 300.9 526.551 298.703C527.378 297.685 528.648 296.525 529.829 298.361C533.461 304.027 529.799 309.86 525.753 311.802C520.88 314.152 520.26 325.999 520.26 325.999C520.26 325.999 530.833 329.307 534.111 320.812C539.915 322.829 550.916 321.446 550.842 310.276C561.268 305.96 566.052 289.621 556.276 283.969C557.694 283.28 558.565 281.267 558.949 279.874C562.951 265.788 546.456 249.991 530.922 258.823C527.495 260.77 524.999 263.28 524.084 266.965Z" fill="url(#paint7_linear_964_182)"/>
<path d="M377.989 603.713C407.205 603.713 430.89 580.061 430.89 550.886C430.89 521.711 407.205 498.059 377.989 498.059C348.773 498.059 325.088 521.711 325.088 550.886C325.088 580.061 348.773 603.713 377.989 603.713Z" fill="url(#paint8_linear_964_182)"/>
<path fill-rule="evenodd" clip-rule="evenodd" d="M346.996 555.499L364.509 577.31C365.228 578.205 366.146 578.92 367.19 579.399C368.235 579.878 369.377 580.106 370.525 580.067C371.674 580.027 372.797 579.721 373.806 579.171C374.815 578.622 375.682 577.845 376.337 576.903L409.046 529.836C410.162 528.228 410.593 526.244 410.244 524.319C409.896 522.394 408.795 520.687 407.186 519.572C405.576 518.457 403.589 518.026 401.661 518.375C399.734 518.723 398.024 519.822 396.907 521.429L369.84 560.379L358.514 546.274C357.285 544.76 355.506 543.794 353.566 543.586C351.626 543.378 349.683 543.945 348.16 545.164C346.638 546.383 345.661 548.155 345.443 550.091C345.225 552.027 345.783 553.971 346.996 555.497V555.499Z" fill="white"/>
<path fill-rule="evenodd" clip-rule="evenodd" d="M569.764 348.602C604.022 351.605 653.993 472.086 632.921 505.356C611.835 538.626 478.83 542.062 443.301 548.222C416.307 571.768 405.276 542.477 409.145 542.438C426.334 542.266 425.876 528.499 425.876 528.499C425.876 528.499 426.157 527.058 421.298 521.201C426.659 517.435 438.634 528.309 438.634 528.309C438.634 528.309 566.913 479.031 578.55 470.583C584.338 466.385 548.204 427.464 546.727 386.526C546.225 372.493 550.168 346.884 569.764 348.602Z" fill="url(#paint9_linear_964_182)"/>
<mask id="mask3_964_182" style="mask-type:luminance" maskUnits="userSpaceOnUse" x="408" y="348" width="230" height="210">
<path d="M569.764 348.602C604.022 351.605 653.993 472.086 632.921 505.356C611.835 538.626 478.83 542.062 443.301 548.222C416.307 571.768 405.276 542.477 409.145 542.438C426.334 542.266 425.876 528.499 425.876 528.499C425.876 528.499 426.157 527.058 421.298 521.201C426.659 517.435 438.634 528.309 438.634 528.309C438.634 528.309 566.913 479.031 578.55 470.583C584.338 466.385 548.204 427.464 546.727 386.526C546.225 372.493 550.168 346.884 569.764 348.602Z" fill="white"/>
</mask>
<g mask="url(#mask3_964_182)">
<path fill-rule="evenodd" clip-rule="evenodd" d="M547.864 433.448C551.364 423.929 561.657 410.59 572.555 409.993C578.802 409.649 583.881 413.605 589.758 415.002C602.856 418.118 619.616 413.393 625.952 400.588C633.719 384.923 615.822 368.83 605.692 359.608C592.047 347.21 573.928 332.447 554.274 338.866C550.759 340.012 547.525 341.758 544.528 343.892C540.564 346.731 537.05 350.149 534.102 354.03C530.396 358.857 527.383 364.344 525.479 370.134C522.363 379.66 522.422 390.112 524.43 399.862C527.059 412.511 532.67 423.723 540.083 434.222L547.864 433.448Z" fill="url(#paint10_linear_964_182)"/>
</g>
<defs>
<linearGradient id="paint0_linear_964_182" x1="87.7484" y1="269.769" x2="223.482" y2="502.122" gradientUnits="userSpaceOnUse">
<stop stop-color="#E3DBF9"/>
<stop offset="0.61" stop-color="#D1C1FA"/>
<stop offset="0.82" stop-color="#A685FB"/>
<stop offset="1" stop-color="#7846FD"/>
</linearGradient>
<linearGradient id="paint1_linear_964_182" x1="237.717" y1="337.737" x2="209.548" y2="388.677" gradientUnits="userSpaceOnUse">
<stop stop-color="#899BB5"/>
<stop offset="1" stop-color="#323B4B"/>
</linearGradient>
<linearGradient id="paint2_linear_964_182" x1="252.058" y1="297.752" x2="238.204" y2="333.929" gradientUnits="userSpaceOnUse">
<stop stop-color="#32373F"/>
<stop offset="1" stop-color="#899BB4"/>
</linearGradient>
<linearGradient id="paint3_linear_964_182" x1="504.016" y1="274" x2="542.664" y2="332.638" gradientUnits="userSpaceOnUse">
<stop stop-color="#FB9C9A"/>
<stop offset="0.64" stop-color="#FC8886"/>
<stop offset="0.84" stop-color="#FD5450"/>
<stop offset="1" stop-color="#FF1712"/>
</linearGradient>
<linearGradient id="paint4_linear_964_182" x1="414.121" y1="360.948" x2="489.378" y2="489.719" gradientUnits="userSpaceOnUse">
<stop stop-color="#FB9C9A"/>
<stop offset="0.63" stop-color="#FC8784"/>
<stop offset="0.83" stop-color="#FD524E"/>
<stop offset="1" stop-color="#FF1712"/>
</linearGradient>
<linearGradient id="paint5_linear_964_182" x1="467.807" y1="359.697" x2="505.418" y2="428.4" gradientUnits="userSpaceOnUse">
<stop stop-color="#323B4B"/>
<stop offset="0.54" stop-color="#323B4B"/>
<stop offset="1" stop-color="#0A1630"/>
</linearGradient>
<linearGradient id="paint6_linear_964_182" x1="480.064" y1="368.514" x2="570.147" y2="497.378" gradientUnits="userSpaceOnUse">
<stop stop-color="#323B4B"/>
<stop offset="0.51" stop-color="#484E5A"/>
<stop offset="1" stop-color="#484E5A"/>
</linearGradient>
<linearGradient id="paint7_linear_964_182" x1="520.782" y1="322.103" x2="556.051" y2="255.119" gradientUnits="userSpaceOnUse">
<stop/>
<stop offset="1" stop-color="#4D4D4D"/>
</linearGradient>
<linearGradient id="paint8_linear_964_182" x1="399.265" y1="500.414" x2="347.836" y2="623.063" gradientUnits="userSpaceOnUse">
<stop offset="0.078125" stop-color="#B5FFB4"/>
<stop offset="0.600272" stop-color="#B0F5F9"/>
<stop offset="0.715397" stop-color="#AFF4F9"/>
<stop offset="1" stop-color="#22A1FF"/>
</linearGradient>
<linearGradient id="paint9_linear_964_182" x1="520.136" y1="487.546" x2="535.036" y2="586.73" gradientUnits="userSpaceOnUse">
<stop stop-color="#FB9C9A"/>
<stop offset="0.47" stop-color="#FC7875"/>
<stop offset="1" stop-color="#FF1712"/>
</linearGradient>
<linearGradient id="paint10_linear_964_182" x1="587.632" y1="347.541" x2="557.738" y2="444.451" gradientUnits="userSpaceOnUse">
<stop stop-color="#070A1C"/>
<stop offset="0.49" stop-color="#323B4B"/>
<stop offset="1" stop-color="#323B4B"/>
</linearGradient>
</defs>
</svg>
