<svg width="52" height="37" viewBox="0 0 52 37" fill="none" xmlns="http://www.w3.org/2000/svg">
<path d="M48.75 0.75H3.25C2.38805 0.75 1.5614 1.09241 0.951903 1.7019C0.34241 2.3114 0 3.13805 0 4L0 33.25C0 34.112 0.34241 34.9386 0.951903 35.5481C1.5614 36.1576 2.38805 36.5 3.25 36.5H48.75C49.612 36.5 50.4386 36.1576 51.0481 35.5481C51.6576 34.9386 52 34.112 52 33.25V4C52 3.13805 51.6576 2.3114 51.0481 1.7019C50.4386 1.09241 49.612 0.75 48.75 0.75ZM3.25 4H48.75V33.25H3.25V4ZM44.1448 17H24.375C23.944 17 23.5307 17.1712 23.226 17.476C22.9212 17.7807 22.75 18.194 22.75 18.625C22.75 19.056 22.9212 19.4693 23.226 19.774C23.5307 20.0788 23.944 20.25 24.375 20.25H44.1448C44.5757 20.25 44.9891 20.0788 45.2938 19.774C45.5985 19.4693 45.7698 19.056 45.7698 18.625C45.7698 18.194 45.5985 17.7807 45.2938 17.476C44.9891 17.1712 44.5757 17 44.1448 17ZM44.1448 23.5H24.375C23.944 23.5 23.5307 23.6712 23.226 23.976C22.9212 24.2807 22.75 24.694 22.75 25.125C22.75 25.556 22.9212 25.9693 23.226 26.274C23.5307 26.5788 23.944 26.75 24.375 26.75H44.1448C44.5757 26.75 44.9891 26.5788 45.2938 26.274C45.5985 25.9693 45.7698 25.556 45.7698 25.125C45.7698 24.694 45.5985 24.2807 45.2938 23.976C44.9891 23.6712 44.5757 23.5 44.1448 23.5ZM44.1448 10.5H24.375C23.944 10.5 23.5307 10.6712 23.226 10.976C22.9212 11.2807 22.75 11.694 22.75 12.125C22.75 12.556 22.9212 12.9693 23.226 13.274C23.5307 13.5788 23.944 13.75 24.375 13.75H44.1448C44.5757 13.75 44.9891 13.5788 45.2938 13.274C45.5985 12.9693 45.7698 12.556 45.7698 12.125C45.7698 11.694 45.5985 11.2807 45.2938 10.976C44.9891 10.6712 44.5757 10.5 44.1448 10.5ZM9.0675 11.176C9.0675 12.2172 9.48113 13.2158 10.2174 13.9521C10.9537 14.6884 11.9523 15.102 12.9935 15.102C14.0347 15.102 15.0333 14.6884 15.7696 13.9521C16.5059 13.2158 16.9195 12.2172 16.9195 11.176C16.9195 10.1348 16.5059 9.13617 15.7696 8.3999C15.0333 7.66363 14.0347 7.25 12.9935 7.25C11.9523 7.25 10.9537 7.66363 10.2174 8.3999C9.48113 9.13617 9.0675 10.1348 9.0675 11.176ZM13.078 16.6718C9.529 16.6718 6.656 20.5262 6.656 25.2842C6.656 30.0422 19.5 30.039 19.5 25.2842C19.5 20.5295 16.6238 16.6718 13.078 16.6718Z" fill="#818181"/>
</svg>
