<svg width="30" height="32" viewBox="0 0 30 32" fill="none" xmlns="http://www.w3.org/2000/svg">
<path d="M11.9722 0C7.64092 0 4.09717 3.0375 4.09717 6.75V11.25C1.86592 11.25 0.159668 12.7125 0.159668 14.625V21.375C0.159668 24.075 1.34092 26.6625 3.57217 28.575C5.80342 30.4875 8.82217 31.5 11.9722 31.5C17.6159 31.5 22.3409 28.125 23.5222 23.625H23.7847C25.2284 23.625 26.5409 23.175 27.4597 22.275C28.5097 21.375 29.0347 20.25 29.0347 19.125C29.0347 18 28.5097 16.7625 27.4597 15.975C26.4097 15.1875 25.2284 14.625 23.7847 14.625C23.7847 12.7125 22.0784 11.25 19.8472 11.25V6.75C19.8472 3.0375 16.3034 0 11.9722 0ZM25.6222 17.55C26.1472 18 26.4097 18.5625 26.4097 19.125C26.4097 19.6875 26.1472 20.25 25.6222 20.7C24.9659 21.2625 23.9159 21.4875 22.8659 21.2625C21.8159 20.925 21.1597 20.1375 21.1597 19.125C21.1597 18.5625 21.4222 18 21.9472 17.55C22.2097 17.325 22.6034 17.1 22.9972 16.9875C23.2597 16.875 23.5222 16.875 23.7847 16.875C24.4409 16.875 25.0972 17.1 25.6222 17.55ZM21.1597 14.625V15.3C20.7659 15.525 20.3722 15.75 20.1097 15.975C19.4534 16.5375 18.9284 17.2125 18.7972 18H6.72217C5.93467 18 5.40967 18.45 5.40967 19.125V21.375C5.40967 22.05 5.93467 22.5 6.72217 22.5C7.50967 22.5 8.03467 22.05 8.03467 21.375V20.25H10.6597V21.375C10.6597 22.05 11.1847 22.5 11.9722 22.5C12.7597 22.5 13.2847 22.05 13.2847 21.375V20.25H18.6659C19.0597 21.375 19.8472 22.275 20.8972 22.95C20.1097 26.55 16.4347 29.25 11.9722 29.25C9.47842 29.25 7.24717 28.4625 5.40967 27C3.70342 25.5375 2.78467 23.5125 2.78467 21.375V14.625C2.78467 13.95 3.30967 13.5 4.09717 13.5H19.8472C20.6347 13.5 21.1597 13.95 21.1597 14.625ZM6.72217 11.25V6.75C6.72217 4.275 9.08467 2.25 11.9722 2.25C14.8597 2.25 17.2222 4.275 17.2222 6.75V11.25H6.72217Z" fill="#B7B7B7"/>
</svg>
