<svg width="60" height="61" viewBox="0 0 60 61" fill="none" xmlns="http://www.w3.org/2000/svg">
<path d="M30 0.5C13.425 0.5 0 13.925 0 30.5C0 47.075 13.425 60.5 30 60.5C46.575 60.5 60 47.075 60 30.5C60 13.925 46.575 0.5 30 0.5ZM30 9.5C34.965 9.5 39 13.535 39 18.5C39 23.48 34.965 27.5 30 27.5C25.035 27.5 21 23.48 21 18.5C21 13.535 25.035 9.5 30 9.5ZM30 52.1C22.485 52.1 15.885 48.26 12 42.44C12.075 36.485 24.015 33.2 30 33.2C35.985 33.2 47.91 36.485 48 42.44C44.115 48.26 37.515 52.1 30 52.1Z" fill="white"/>
</svg>
