<svg width="32" height="32" viewBox="0 0 32 32" fill="none" xmlns="http://www.w3.org/2000/svg">
<path d="M21.6526 16.9662C23.2049 15.7449 24.3379 14.0702 24.8941 12.1749C25.4502 10.2797 25.4018 8.25829 24.7556 6.39186C24.1094 4.52543 22.8975 2.90682 21.2885 1.76122C19.6796 0.615623 17.7536 0 15.7784 0C13.8033 0 11.8773 0.615623 10.2683 1.76122C8.65937 2.90682 7.44748 4.52543 6.80127 6.39186C6.15506 8.25829 6.10667 10.2797 6.66281 12.1749C7.21895 14.0702 8.35198 15.7449 9.90427 16.9662C7.24439 18.0319 4.92356 19.7993 3.18918 22.0802C1.45481 24.3611 0.371912 27.0699 0.0559371 29.9179C0.0330652 30.1258 0.0513716 30.3362 0.109811 30.537C0.16825 30.7379 0.265677 30.9253 0.39653 31.0885C0.6608 31.4181 1.04518 31.6292 1.4651 31.6754C1.88503 31.7216 2.30611 31.599 2.6357 31.3348C2.9653 31.0705 3.17641 30.6861 3.2226 30.2662C3.57028 27.1711 5.04611 24.3126 7.36812 22.2368C9.69013 20.161 12.6955 19.0135 15.8101 19.0135C18.9247 19.0135 21.9301 20.161 24.2521 22.2368C26.5741 24.3126 28.0499 27.1711 28.3976 30.2662C28.4407 30.6553 28.6263 31.0146 28.9187 31.2748C29.2111 31.535 29.5895 31.6777 29.9809 31.6754H30.1551C30.5702 31.6276 30.9495 31.4178 31.2105 31.0915C31.4715 30.7653 31.593 30.3491 31.5484 29.9337C31.231 27.0777 30.1422 24.3619 28.3989 22.0775C26.6557 19.7931 24.3235 18.0262 21.6526 16.9662ZM15.7784 15.842C14.5258 15.842 13.3013 15.4706 12.2598 14.7747C11.2183 14.0788 10.4066 13.0896 9.9272 11.9324C9.44784 10.7751 9.32242 9.50168 9.5668 8.27313C9.81117 7.04458 10.4144 5.91609 11.3001 5.03036C12.1858 4.14463 13.3143 3.54144 14.5429 3.29706C15.7714 3.05269 17.0448 3.17811 18.2021 3.65746C19.3594 4.13682 20.3485 4.94858 21.0444 5.99009C21.7403 7.0316 22.1118 8.25609 22.1118 9.5087C22.1118 11.1884 21.4445 12.7993 20.2568 13.987C19.069 15.1748 17.4581 15.842 15.7784 15.842Z" fill="#B7B7B7"/>
</svg>
