<svg width="65" height="65" viewBox="0 0 65 65" fill="none" xmlns="http://www.w3.org/2000/svg">
<path d="M36.2041 28.4475V28.6975H36.4541H60.4541C61.4487 28.6975 62.4025 29.0926 63.1058 29.7959C63.809 30.4991 64.2041 31.4529 64.2041 32.4475C64.2041 33.4421 63.809 34.3959 63.1058 35.0992C62.4025 35.8024 61.4487 36.1975 60.4541 36.1975H36.4541H36.2041V36.4475V60.4475C36.2041 61.4421 35.809 62.3959 35.1058 63.0992C34.4025 63.8024 33.4487 64.1975 32.4541 64.1975C31.4595 64.1975 30.5057 63.8024 29.8025 63.0992C29.0992 62.3959 28.7041 61.4421 28.7041 60.4475V36.4475V36.1975H28.4541H4.4541C3.45954 36.1975 2.50571 35.8024 1.80245 35.0992C1.09919 34.3959 0.704102 33.4421 0.704102 32.4475C0.704102 31.4529 1.09919 30.4991 1.80245 29.7959C2.50571 29.0926 3.45954 28.6975 4.4541 28.6975H28.4541H28.7041V28.4475V4.44751C28.7041 3.45295 29.0992 2.49912 29.8025 1.79586C30.5057 1.0926 31.4595 0.69751 32.4541 0.69751C33.4487 0.69751 34.4025 1.0926 35.1058 1.79586C35.809 2.49912 36.2041 3.45295 36.2041 4.44751V28.4475Z" fill="#ABABAB" stroke="#ABABAB" stroke-width="0.5"/>
</svg>
